<?xml version="1.0" encoding="utf-8"?>
<!-- Generator: Adobe Illustrator 15.0.2, SVG Export Plug-In . SVG Version: 6.00 Build 0)  -->
<!DOCTYPE svg PUBLIC "-//W3C//DTD SVG 1.1//EN" "http://www.w3.org/Graphics/SVG/1.1/DTD/svg11.dtd">
<svg version="1.1" id="Calque_1" xmlns="http://www.w3.org/2000/svg" xmlns:xlink="http://www.w3.org/1999/xlink" x="0px" y="0px"
	 width="36px" height="864px" viewBox="0 0 36 864" enable-background="new 0 0 36 864" xml:space="preserve">
<g>
	<rect x="13.501" y="29" fill="#FFC107" width="9" height="1"/>
	<rect x="2" y="29" fill="#4CAF50" width="9" height="1"/>
	<rect x="25.001" y="29" fill="#03A9F4" width="9" height="1"/>
	<rect x="13.501" y="64" fill="#FFC107" width="9" height="2"/>
	<rect x="2" y="65" fill="#4CAF50" width="9" height="1"/>
	<rect x="25.001" y="65" fill="#03A9F4" width="9" height="1"/>
	<rect x="13.501" y="99" fill="#FFC107" width="9" height="3"/>
	<rect x="2" y="101" fill="#4CAF50" width="9" height="1"/>
	<rect x="25.001" y="101" fill="#03A9F4" width="9" height="1"/>
	<rect x="13.501" y="134" fill="#FFC107" width="9" height="4"/>
	<rect x="2" y="137" fill="#4CAF50" width="9" height="1"/>
	<rect x="25.001" y="137" fill="#03A9F4" width="9" height="1"/>
	<rect x="13.501" y="169" fill="#FFC107" width="9" height="5"/>
	<rect x="2" y="173" fill="#4CAF50" width="9" height="1"/>
	<rect x="25.001" y="173" fill="#03A9F4" width="9" height="1"/>
	<rect x="13.501" y="204" fill="#FFC107" width="9" height="6"/>
	<rect x="2" y="209" fill="#4CAF50" width="9" height="1"/>
	<rect x="25.001" y="209" fill="#03A9F4" width="9" height="1"/>
	<rect x="13.501" y="239" fill="#FFC107" width="9" height="7"/>
	<rect x="2" y="245" fill="#4CAF50" width="9" height="1"/>
	<rect x="25.001" y="245" fill="#03A9F4" width="9" height="1"/>
	<rect x="13.501" y="274" fill="#FFC107" width="9" height="8"/>
	<rect x="2" y="280" fill="#4CAF50" width="9" height="2"/>
	<rect x="25.001" y="281" fill="#03A9F4" width="9" height="1"/>
	<rect x="13.501" y="309" fill="#FFC107" width="9" height="9"/>
	<rect x="2" y="315" fill="#4CAF50" width="9" height="3"/>
	<rect x="25.001" y="317" fill="#03A9F4" width="9" height="1"/>
	<rect x="13.501" y="344" fill="#FFC107" width="9" height="10"/>
	<rect x="2" y="350" fill="#4CAF50" width="9" height="4"/>
	<rect x="25.001" y="353" fill="#03A9F4" width="9" height="1"/>
	<rect x="13.501" y="379" fill="#FFC107" width="9" height="11"/>
	<rect x="2" y="385" fill="#4CAF50" width="9" height="5"/>
	<rect x="25.001" y="389" fill="#03A9F4" width="9" height="1"/>
	<rect x="13.501" y="414" fill="#FFC107" width="9" height="12"/>
	<rect x="2" y="420" fill="#4CAF50" width="9" height="6"/>
	<rect x="25.001" y="425" fill="#03A9F4" width="9" height="1"/>
	<rect x="13.501" y="449" fill="#FFC107" width="9" height="13"/>
	<rect x="2" y="455" fill="#4CAF50" width="9" height="7"/>
	<rect x="25.001" y="460" fill="#03A9F4" width="9" height="2"/>
	<rect x="13.501" y="484" fill="#FFC107" width="9" height="14"/>
	<rect x="2" y="490" fill="#4CAF50" width="9" height="8"/>
	<rect x="25.001" y="495" fill="#03A9F4" width="9" height="3"/>
	<rect x="13.501" y="519" fill="#FFC107" width="9" height="15"/>
	<rect x="2" y="525" fill="#4CAF50" width="9" height="9"/>
	<rect x="25.001" y="530" fill="#03A9F4" width="9" height="4"/>
	<rect x="13.501" y="554" fill="#FFC107" width="9" height="16"/>
	<rect x="2" y="560" fill="#4CAF50" width="9" height="10"/>
	<rect x="25.001" y="565" fill="#03A9F4" width="9" height="5"/>
	<rect x="13.501" y="589" fill="#FFC107" width="9" height="17"/>
	<rect x="2" y="595" fill="#4CAF50" width="9" height="11"/>
	<rect x="25.001" y="600" fill="#03A9F4" width="9" height="6"/>
	<rect x="13.501" y="624" fill="#FFC107" width="9" height="18"/>
	<rect x="2" y="630" fill="#4CAF50" width="9" height="12"/>
	<rect x="25.001" y="635" fill="#03A9F4" width="9" height="7"/>
	<rect x="13.501" y="659" fill="#FFC107" width="9" height="19"/>
	<rect x="2" y="665" fill="#4CAF50" width="9" height="13"/>
	<rect x="25.001" y="670" fill="#03A9F4" width="9" height="8"/>
	<rect x="13.501" y="694" fill="#FFC107" width="9" height="20"/>
	<rect x="2" y="700" fill="#4CAF50" width="9" height="14"/>
	<rect x="25.001" y="705" fill="#03A9F4" width="9" height="9"/>
	<rect x="13.501" y="729" fill="#FFC107" width="9" height="21"/>
	<rect x="2" y="735" fill="#4CAF50" width="9" height="15"/>
	<rect x="25.001" y="740" fill="#03A9F4" width="9" height="10"/>
	<rect x="13.501" y="764" fill="#FFC107" width="9" height="22"/>
	<rect x="2" y="770" fill="#4CAF50" width="9" height="16"/>
	<rect x="25.001" y="775" fill="#03A9F4" width="9" height="11"/>
	<rect x="13.501" y="799" fill="#FFC107" width="9" height="23"/>
	<rect x="2" y="805" fill="#4CAF50" width="9" height="17"/>
	<rect x="25.001" y="810" fill="#03A9F4" width="9" height="12"/>
	<rect x="13.501" y="834" fill="#FFC107" width="9" height="24"/>
	<rect x="2" y="840" fill="#4CAF50" width="9" height="18"/>
	<rect x="25.001" y="845" fill="#03A9F4" width="9" height="13"/>
	<rect y="0" fill="#607D8B" fill-opacity="0" width="36" height="864"/>
</g>
</svg>
