<?xml version="1.0" encoding="utf-8"?>
<!-- Generator: Adobe Illustrator 15.0.2, SVG Export Plug-In . SVG Version: 6.00 Build 0)  -->
<!DOCTYPE svg PUBLIC "-//W3C//DTD SVG 1.1//EN" "http://www.w3.org/Graphics/SVG/1.1/DTD/svg11.dtd">
<svg version="1.1" id="Calque_1" xmlns="http://www.w3.org/2000/svg" xmlns:xlink="http://www.w3.org/1999/xlink" x="0px" y="0px"
	 width="36px" height="432px" viewBox="0 0 36 432" enable-background="new 0 0 36 432" xml:space="preserve">
<g>
	<g>
		<g>
			<rect x="2.001" y="7" width="0.533" height="22"/>
		</g>
		<g>
			<rect x="3.07" y="7" width="0.534" height="22"/>
		</g>
		<g>
			<rect x="4.14" y="7" width="0.535" height="22"/>
		</g>
		<g>
			<rect x="8.239" y="7" width="0.537" height="22"/>
		</g>
		<g>
			<rect x="9.31" y="7" width="0.533" height="22"/>
		</g>
		<g>
			<rect x="6.278" y="7" width="1.605" height="22"/>
		</g>
		<g>
			<rect x="10.38" y="7" width="1.604" height="22"/>
		</g>
		<g>
			<rect x="16.798" y="7" width="0.534" height="22"/>
		</g>
		<g>
			<rect x="19.827" y="7" width="0.536" height="22"/>
		</g>
		<g>
			<rect x="20.896" y="7" width="0.537" height="22"/>
		</g>
		<g>
			<rect x="29.276" y="7" width="0.533" height="22"/>
		</g>
		<g>
			<rect x="30.347" y="7" width="0.533" height="22"/>
		</g>
		<g>
			<rect x="25.175" y="7" width="0.535" height="22"/>
		</g>
		<g>
			<rect x="17.688" y="7" width="1.604" height="22"/>
		</g>
		<g>
			<rect x="23.037" y="7" width="1.604" height="22"/>
		</g>
		<g>
			<rect x="26.335" y="7" width="1.426" height="22"/>
		</g>
		<g>
			<rect x="32.574" y="7" width="1.427" height="22"/>
		</g>
		<g>
			<rect x="13.589" y="7" width="1.604" height="22"/>
		</g>
	</g>
	<g>
		<g>
			<rect x="2.001" y="43" width="0.533" height="22"/>
		</g>
		<g>
			<rect x="3.07" y="43" width="0.534" height="22"/>
		</g>
		<g>
			<rect x="4.14" y="43" width="0.535" height="22"/>
		</g>
		<g>
			<rect x="8.239" y="43" width="0.537" height="22"/>
		</g>
		<g>
			<rect x="9.31" y="43" width="0.533" height="22"/>
		</g>
		<g>
			<rect x="6.278" y="43" width="1.605" height="22"/>
		</g>
		<g>
			<rect x="10.38" y="43" width="1.604" height="22"/>
		</g>
		<g>
			<rect x="16.798" y="43" width="0.534" height="22"/>
		</g>
		<g>
			<rect x="19.827" y="43" width="0.536" height="22"/>
		</g>
		<g>
			<rect x="20.896" y="43" width="0.537" height="22"/>
		</g>
		<g>
			<rect x="29.276" y="43" width="0.533" height="22"/>
		</g>
		<g>
			<rect x="30.347" y="43" width="0.533" height="22"/>
		</g>
		<g>
			<rect x="25.175" y="43" width="0.535" height="22"/>
		</g>
		<g>
			<rect x="17.688" y="43" width="1.604" height="22"/>
		</g>
		<g>
			<rect x="23.037" y="43" width="1.604" height="22"/>
		</g>
		<g>
			<rect x="26.335" y="43" width="1.426" height="22"/>
		</g>
		<g>
			<rect x="32.574" y="43" width="1.427" height="22"/>
		</g>
		<g>
			<rect x="13.589" y="43" width="1.604" height="22"/>
		</g>
	</g>
	<rect x="1.001" y="42.999" opacity="0.1" fill="#F44336" enable-background="new    " width="34" height="2"/>
	<g>
		<g>
			<rect x="2.001" y="79" width="0.533" height="22"/>
		</g>
		<g>
			<rect x="3.07" y="79" width="0.534" height="22"/>
		</g>
		<g>
			<rect x="4.14" y="79" width="0.535" height="22"/>
		</g>
		<g>
			<rect x="8.239" y="79" width="0.537" height="22"/>
		</g>
		<g>
			<rect x="9.31" y="79" width="0.533" height="22"/>
		</g>
		<g>
			<rect x="6.278" y="79" width="1.605" height="22"/>
		</g>
		<g>
			<rect x="10.38" y="79" width="1.604" height="22"/>
		</g>
		<g>
			<rect x="16.798" y="79" width="0.534" height="22"/>
		</g>
		<g>
			<rect x="19.827" y="79" width="0.536" height="22"/>
		</g>
		<g>
			<rect x="20.896" y="79" width="0.537" height="22"/>
		</g>
		<g>
			<rect x="29.276" y="79" width="0.533" height="22"/>
		</g>
		<g>
			<rect x="30.347" y="79" width="0.533" height="22"/>
		</g>
		<g>
			<rect x="25.175" y="79" width="0.535" height="22"/>
		</g>
		<g>
			<rect x="17.688" y="79" width="1.604" height="22"/>
		</g>
		<g>
			<rect x="23.037" y="79" width="1.604" height="22"/>
		</g>
		<g>
			<rect x="26.335" y="79" width="1.426" height="22"/>
		</g>
		<g>
			<rect x="32.574" y="79" width="1.427" height="22"/>
		</g>
		<g>
			<rect x="13.589" y="79" width="1.604" height="22"/>
		</g>
	</g>
	<rect x="1.001" y="80.999" opacity="0.2" fill="#F44336" enable-background="new    " width="34" height="2.001"/>
	<g>
		<g>
			<rect x="2.001" y="115" width="0.533" height="22"/>
		</g>
		<g>
			<rect x="3.07" y="115" width="0.534" height="22"/>
		</g>
		<g>
			<rect x="4.14" y="115" width="0.535" height="22"/>
		</g>
		<g>
			<rect x="8.239" y="115" width="0.537" height="22"/>
		</g>
		<g>
			<rect x="9.31" y="115" width="0.533" height="22"/>
		</g>
		<g>
			<rect x="6.278" y="115" width="1.605" height="22"/>
		</g>
		<g>
			<rect x="10.38" y="115" width="1.604" height="22"/>
		</g>
		<g>
			<rect x="16.798" y="115" width="0.534" height="22"/>
		</g>
		<g>
			<rect x="19.827" y="115" width="0.536" height="22"/>
		</g>
		<g>
			<rect x="20.896" y="115" width="0.537" height="22"/>
		</g>
		<g>
			<rect x="29.276" y="115" width="0.533" height="22"/>
		</g>
		<g>
			<rect x="30.347" y="115" width="0.533" height="22"/>
		</g>
		<g>
			<rect x="25.175" y="115" width="0.535" height="22"/>
		</g>
		<g>
			<rect x="17.688" y="115" width="1.604" height="22"/>
		</g>
		<g>
			<rect x="23.037" y="115" width="1.604" height="22"/>
		</g>
		<g>
			<rect x="26.335" y="115" width="1.426" height="22"/>
		</g>
		<g>
			<rect x="32.574" y="115" width="1.427" height="22"/>
		</g>
		<g>
			<rect x="13.589" y="115" width="1.604" height="22"/>
		</g>
	</g>
	<rect x="1.001" y="118.999" opacity="0.3" fill="#F44336" enable-background="new    " width="34" height="2.001"/>
	<g>
		<g>
			<rect x="2.001" y="151" width="0.533" height="22"/>
		</g>
		<g>
			<rect x="3.07" y="151" width="0.534" height="22"/>
		</g>
		<g>
			<rect x="4.14" y="151" width="0.535" height="22"/>
		</g>
		<g>
			<rect x="8.239" y="151" width="0.537" height="22"/>
		</g>
		<g>
			<rect x="9.31" y="151" width="0.533" height="22"/>
		</g>
		<g>
			<rect x="6.278" y="151" width="1.605" height="22"/>
		</g>
		<g>
			<rect x="10.38" y="151" width="1.604" height="22"/>
		</g>
		<g>
			<rect x="16.798" y="151" width="0.534" height="22"/>
		</g>
		<g>
			<rect x="19.827" y="151" width="0.536" height="22"/>
		</g>
		<g>
			<rect x="20.896" y="151" width="0.537" height="22"/>
		</g>
		<g>
			<rect x="29.276" y="151" width="0.533" height="22"/>
		</g>
		<g>
			<rect x="30.347" y="151" width="0.533" height="22"/>
		</g>
		<g>
			<rect x="25.175" y="151" width="0.535" height="22"/>
		</g>
		<g>
			<rect x="17.688" y="151" width="1.604" height="22"/>
		</g>
		<g>
			<rect x="23.037" y="151" width="1.604" height="22"/>
		</g>
		<g>
			<rect x="26.335" y="151" width="1.426" height="22"/>
		</g>
		<g>
			<rect x="32.574" y="151" width="1.427" height="22"/>
		</g>
		<g>
			<rect x="13.589" y="151" width="1.604" height="22"/>
		</g>
	</g>
	<rect x="1.001" y="156.998" opacity="0.4" fill="#F44336" enable-background="new    " width="34" height="2.002"/>
	<g>
		<g>
			<rect x="2.001" y="187" width="0.533" height="22"/>
		</g>
		<g>
			<rect x="3.07" y="187" width="0.534" height="22"/>
		</g>
		<g>
			<rect x="4.14" y="187" width="0.535" height="22"/>
		</g>
		<g>
			<rect x="8.239" y="187" width="0.537" height="22"/>
		</g>
		<g>
			<rect x="9.31" y="187" width="0.533" height="22"/>
		</g>
		<g>
			<rect x="6.278" y="187" width="1.605" height="22"/>
		</g>
		<g>
			<rect x="10.38" y="187" width="1.604" height="22"/>
		</g>
		<g>
			<rect x="16.798" y="187" width="0.534" height="22"/>
		</g>
		<g>
			<rect x="19.827" y="187" width="0.536" height="22"/>
		</g>
		<g>
			<rect x="20.896" y="187" width="0.537" height="22"/>
		</g>
		<g>
			<rect x="29.276" y="187" width="0.533" height="22"/>
		</g>
		<g>
			<rect x="30.347" y="187" width="0.533" height="22"/>
		</g>
		<g>
			<rect x="25.175" y="187" width="0.535" height="22"/>
		</g>
		<g>
			<rect x="17.688" y="187" width="1.604" height="22"/>
		</g>
		<g>
			<rect x="23.037" y="187" width="1.604" height="22"/>
		</g>
		<g>
			<rect x="26.335" y="187" width="1.426" height="22"/>
		</g>
		<g>
			<rect x="32.574" y="187" width="1.427" height="22"/>
		</g>
		<g>
			<rect x="13.589" y="187" width="1.604" height="22"/>
		</g>
	</g>
	<rect x="1.001" y="194.998" opacity="0.5" fill="#F44336" enable-background="new    " width="34" height="2.002"/>
	<g>
		<g>
			<rect x="2.001" y="223" width="0.533" height="22"/>
		</g>
		<g>
			<rect x="3.07" y="223" width="0.534" height="22"/>
		</g>
		<g>
			<rect x="4.14" y="223" width="0.535" height="22"/>
		</g>
		<g>
			<rect x="8.239" y="223" width="0.537" height="22"/>
		</g>
		<g>
			<rect x="9.31" y="223" width="0.533" height="22"/>
		</g>
		<g>
			<rect x="6.278" y="223" width="1.605" height="22"/>
		</g>
		<g>
			<rect x="10.38" y="223" width="1.604" height="22"/>
		</g>
		<g>
			<rect x="16.798" y="223" width="0.534" height="22"/>
		</g>
		<g>
			<rect x="19.827" y="223" width="0.536" height="22"/>
		</g>
		<g>
			<rect x="20.896" y="223" width="0.537" height="22"/>
		</g>
		<g>
			<rect x="29.276" y="223" width="0.533" height="22"/>
		</g>
		<g>
			<rect x="30.347" y="223" width="0.533" height="22"/>
		</g>
		<g>
			<rect x="25.175" y="223" width="0.535" height="22"/>
		</g>
		<g>
			<rect x="17.688" y="223" width="1.604" height="22"/>
		</g>
		<g>
			<rect x="23.037" y="223" width="1.604" height="22"/>
		</g>
		<g>
			<rect x="26.335" y="223" width="1.426" height="22"/>
		</g>
		<g>
			<rect x="32.574" y="223" width="1.427" height="22"/>
		</g>
		<g>
			<rect x="13.589" y="223" width="1.604" height="22"/>
		</g>
	</g>
	<rect x="1.001" y="232.998" opacity="0.6" fill="#F44336" enable-background="new    " width="34" height="2.002"/>
	<g>
		<g>
			<rect x="2.001" y="259" width="0.533" height="22"/>
		</g>
		<g>
			<rect x="3.07" y="259" width="0.534" height="22"/>
		</g>
		<g>
			<rect x="4.14" y="259" width="0.535" height="22"/>
		</g>
		<g>
			<rect x="8.239" y="259" width="0.537" height="22"/>
		</g>
		<g>
			<rect x="9.31" y="259" width="0.533" height="22"/>
		</g>
		<g>
			<rect x="6.278" y="259" width="1.605" height="22"/>
		</g>
		<g>
			<rect x="10.38" y="259" width="1.604" height="22"/>
		</g>
		<g>
			<rect x="16.798" y="259" width="0.534" height="22"/>
		</g>
		<g>
			<rect x="19.827" y="259" width="0.536" height="22"/>
		</g>
		<g>
			<rect x="20.896" y="259" width="0.537" height="22"/>
		</g>
		<g>
			<rect x="29.276" y="259" width="0.533" height="22"/>
		</g>
		<g>
			<rect x="30.347" y="259" width="0.533" height="22"/>
		</g>
		<g>
			<rect x="25.175" y="259" width="0.535" height="22"/>
		</g>
		<g>
			<rect x="17.688" y="259" width="1.604" height="22"/>
		</g>
		<g>
			<rect x="23.037" y="259" width="1.604" height="22"/>
		</g>
		<g>
			<rect x="26.335" y="259" width="1.426" height="22"/>
		</g>
		<g>
			<rect x="32.574" y="259" width="1.427" height="22"/>
		</g>
		<g>
			<rect x="13.589" y="259" width="1.604" height="22"/>
		</g>
	</g>
	<rect x="1.001" y="270.998" opacity="0.7" fill="#F44336" enable-background="new    " width="34" height="2.002"/>
	<g>
		<g>
			<rect x="2.001" y="295" width="0.533" height="22"/>
		</g>
		<g>
			<rect x="3.07" y="295" width="0.534" height="22"/>
		</g>
		<g>
			<rect x="4.14" y="295" width="0.535" height="22"/>
		</g>
		<g>
			<rect x="8.239" y="295" width="0.537" height="22"/>
		</g>
		<g>
			<rect x="9.31" y="295" width="0.533" height="22"/>
		</g>
		<g>
			<rect x="6.278" y="295" width="1.605" height="22"/>
		</g>
		<g>
			<rect x="10.38" y="295" width="1.604" height="22"/>
		</g>
		<g>
			<rect x="16.798" y="295" width="0.534" height="22"/>
		</g>
		<g>
			<rect x="19.827" y="295" width="0.536" height="22"/>
		</g>
		<g>
			<rect x="20.896" y="295" width="0.537" height="22"/>
		</g>
		<g>
			<rect x="29.276" y="295" width="0.533" height="22"/>
		</g>
		<g>
			<rect x="30.347" y="295" width="0.533" height="22"/>
		</g>
		<g>
			<rect x="25.175" y="295" width="0.535" height="22"/>
		</g>
		<g>
			<rect x="17.688" y="295" width="1.604" height="22"/>
		</g>
		<g>
			<rect x="23.037" y="295" width="1.604" height="22"/>
		</g>
		<g>
			<rect x="26.335" y="295" width="1.426" height="22"/>
		</g>
		<g>
			<rect x="32.574" y="295" width="1.427" height="22"/>
		</g>
		<g>
			<rect x="13.589" y="295" width="1.604" height="22"/>
		</g>
	</g>
	<rect x="1.001" y="308.998" opacity="0.8" fill="#F44336" enable-background="new    " width="34" height="2.002"/>
	<g>
		<g>
			<rect x="2.001" y="331" width="0.533" height="22"/>
		</g>
		<g>
			<rect x="3.07" y="331" width="0.534" height="22"/>
		</g>
		<g>
			<rect x="4.14" y="331" width="0.535" height="22"/>
		</g>
		<g>
			<rect x="8.239" y="331" width="0.537" height="22"/>
		</g>
		<g>
			<rect x="9.31" y="331" width="0.533" height="22"/>
		</g>
		<g>
			<rect x="6.278" y="331" width="1.605" height="22"/>
		</g>
		<g>
			<rect x="10.38" y="331" width="1.604" height="22"/>
		</g>
		<g>
			<rect x="16.798" y="331" width="0.534" height="22"/>
		</g>
		<g>
			<rect x="19.827" y="331" width="0.536" height="22"/>
		</g>
		<g>
			<rect x="20.896" y="331" width="0.537" height="22"/>
		</g>
		<g>
			<rect x="29.276" y="331" width="0.533" height="22"/>
		</g>
		<g>
			<rect x="30.347" y="331" width="0.533" height="22"/>
		</g>
		<g>
			<rect x="25.175" y="331" width="0.535" height="22"/>
		</g>
		<g>
			<rect x="17.688" y="331" width="1.604" height="22"/>
		</g>
		<g>
			<rect x="23.037" y="331" width="1.604" height="22"/>
		</g>
		<g>
			<rect x="26.335" y="331" width="1.426" height="22"/>
		</g>
		<g>
			<rect x="32.574" y="331" width="1.427" height="22"/>
		</g>
		<g>
			<rect x="13.589" y="331" width="1.604" height="22"/>
		</g>
	</g>
	<rect x="1.001" y="346.998" opacity="0.9" fill="#F44336" enable-background="new    " width="34" height="2.002"/>
	<g>
		<g>
			<rect x="2.001" y="367" width="0.533" height="22"/>
		</g>
		<g>
			<rect x="3.07" y="367" width="0.534" height="22"/>
		</g>
		<g>
			<rect x="4.14" y="367" width="0.535" height="22"/>
		</g>
		<g>
			<rect x="8.239" y="367" width="0.537" height="22"/>
		</g>
		<g>
			<rect x="9.31" y="367" width="0.533" height="22"/>
		</g>
		<g>
			<rect x="6.278" y="367" width="1.605" height="22"/>
		</g>
		<g>
			<rect x="10.38" y="367" width="1.604" height="22"/>
		</g>
		<g>
			<rect x="16.798" y="367" width="0.534" height="22"/>
		</g>
		<g>
			<rect x="19.827" y="367" width="0.536" height="22"/>
		</g>
		<g>
			<rect x="20.896" y="367" width="0.537" height="22"/>
		</g>
		<g>
			<rect x="29.276" y="367" width="0.533" height="22"/>
		</g>
		<g>
			<rect x="30.347" y="367" width="0.533" height="22"/>
		</g>
		<g>
			<rect x="25.175" y="367" width="0.535" height="22"/>
		</g>
		<g>
			<rect x="17.688" y="367" width="1.604" height="22"/>
		</g>
		<g>
			<rect x="23.037" y="367" width="1.604" height="22"/>
		</g>
		<g>
			<rect x="26.335" y="367" width="1.426" height="22"/>
		</g>
		<g>
			<rect x="32.574" y="367" width="1.427" height="22"/>
		</g>
		<g>
			<rect x="13.589" y="367" width="1.604" height="22"/>
		</g>
	</g>
	<rect x="1.001" y="384.998" fill="#F44336" width="34" height="2.002"/>
	<g>
		<g>
			<rect x="2.001" y="403" width="0.533" height="22"/>
		</g>
		<g>
			<rect x="3.07" y="403" width="0.534" height="22"/>
		</g>
		<g>
			<rect x="4.14" y="403" width="0.535" height="22"/>
		</g>
		<g>
			<rect x="8.239" y="403" width="0.537" height="22"/>
		</g>
		<g>
			<rect x="9.31" y="403" width="0.533" height="22"/>
		</g>
		<g>
			<rect x="6.278" y="403" width="1.605" height="22"/>
		</g>
		<g>
			<rect x="10.38" y="403" width="1.604" height="22"/>
		</g>
		<g>
			<rect x="16.798" y="403" width="0.534" height="22"/>
		</g>
		<g>
			<rect x="19.827" y="403" width="0.536" height="22"/>
		</g>
		<g>
			<rect x="20.896" y="403" width="0.537" height="22"/>
		</g>
		<g>
			<rect x="29.276" y="403" width="0.533" height="22"/>
		</g>
		<g>
			<rect x="30.347" y="403" width="0.533" height="22"/>
		</g>
		<g>
			<rect x="25.175" y="403" width="0.535" height="22"/>
		</g>
		<g>
			<rect x="17.688" y="403" width="1.604" height="22"/>
		</g>
		<g>
			<rect x="23.037" y="403" width="1.604" height="22"/>
		</g>
		<g>
			<rect x="26.335" y="403" width="1.426" height="22"/>
		</g>
		<g>
			<rect x="32.574" y="403" width="1.427" height="22"/>
		</g>
		<g>
			<rect x="13.589" y="403" width="1.604" height="22"/>
		</g>
	</g>
	<rect x="1.001" y="422.998" fill="#F44336" width="34" height="2.002"/>
	<rect y="0" fill="#607D8B" fill-opacity="0" width="36" height="432"/>
</g>
</svg>
